<?xml version="1.0" encoding="utf-8"?>
<!-- Generator: Adobe Illustrator 16.0.0, SVG Export Plug-In . SVG Version: 6.00 Build 0)  -->
<!DOCTYPE svg PUBLIC "-//W3C//DTD SVG 1.1//EN" "http://www.w3.org/Graphics/SVG/1.1/DTD/svg11.dtd">
<svg version="1.1" id="Layer_1" xmlns="http://www.w3.org/2000/svg" xmlns:xlink="http://www.w3.org/1999/xlink" x="0px" y="0px"
	 width="200px" height="200px" viewBox="0 0 200 200" enable-background="new 0 0 200 200" xml:space="preserve">
<g id="guzJhe_1_">
	<g>
		<g opacity="0.5">
			<path d="M106.52,193.869c-0.351,0-0.702,0-1.054,0c-0.151-0.297-0.23-0.681-0.466-0.878c-6.174-5.168-11.721-10.929-16.375-17.51
				c-10.741-15.188-16.209-32.166-16.711-50.695c-0.338-12.488,2.435-24.47,6.977-36.048c0.573-1.461,0.259-2.144-0.908-2.988
				c-1.964-1.42-3.963-2.862-5.648-4.587c-5.607-5.74-9.39-12.562-11.506-20.308c-0.367-1.343-0.805-2.667-1.21-4
				c0-4.391,0-8.783,0-13.174c0.77-2.656,1.339-5.39,2.345-7.953c3.151-8.024,7.689-15.11,14.778-20.266
				c5.197-3.78,10.646-7.054,17.174-8.083c2.298-0.362,4.54-1.083,6.807-1.641c1.756,0,3.513,0,5.27,0
				c0.496,0.219,0.984,0.609,1.49,0.633c7.371,0.35,14.133,2.833,20.124,6.848c10.458,7.008,17.208,16.72,19.395,29.329
				c0.341,1.966,0.764,3.918,1.149,5.876c0,1.405,0,2.811,0,4.216c-0.218,0.409-0.547,0.794-0.636,1.229
				c-0.673,3.286-0.971,6.688-1.998,9.854c-3.484,10.734-10.202,18.889-19.989,24.633c-8.817,5.174-18.285,6.457-28.968,5.531
				c-1.266,4.662-2.607,9.513-3.897,14.377c-2.189,8.252-2.258,16.608-1.032,24.993c2.269,15.525,8.589,29.085,19.845,40.167
				c1.314,1.295,1.7,2.322,0.956,4.188C110.297,182.965,108.469,188.44,106.52,193.869z M131.421,50.199
				c0.375-15.346-11.498-27.95-27.767-28.046c-15.452-0.091-27.477,12.196-27.869,26.961c-0.433,16.3,12.191,28.413,26.698,29.058
				C118.178,78.871,132.445,65.321,131.421,50.199z"/>
			<path fill-rule="evenodd" clip-rule="evenodd" fill="#FFFFFF" d="M106.52,193.869c1.949-5.429,3.777-10.904,5.912-16.259
				c0.744-1.865,0.358-2.893-0.956-4.188c-11.256-11.082-17.576-24.642-19.845-40.167c-1.226-8.385-1.157-16.741,1.032-24.993
				c1.291-4.864,2.632-9.715,3.897-14.377c10.683,0.926,20.151-0.356,28.968-5.531c9.787-5.744,16.505-13.899,19.989-24.633
				c1.027-3.167,1.325-6.568,1.998-9.854c0.089-0.435,0.418-0.82,0.636-1.229c0,47.077,0,94.153,0,141.23
				C134.274,193.869,120.396,193.869,106.52,193.869z"/>
			<path fill-rule="evenodd" clip-rule="evenodd" fill="#FFFFFF" d="M59.619,56.854c0.405,1.333,0.844,2.657,1.21,4
				c2.116,7.746,5.898,14.568,11.506,20.308c1.685,1.725,3.684,3.167,5.648,4.587c1.167,0.844,1.481,1.527,0.908,2.988
				c-4.542,11.578-7.315,23.56-6.977,36.048c0.502,18.529,5.971,35.508,16.711,50.695c4.654,6.581,10.2,12.342,16.375,17.51
				c0.235,0.197,0.314,0.581,0.466,0.878c-15.261,0-30.521,0-45.847,0C59.619,148.197,59.619,102.526,59.619,56.854z"/>
			<path fill-rule="evenodd" clip-rule="evenodd" fill="#FFFFFF" d="M148.151,48.423c-0.386-1.958-0.809-3.91-1.149-5.876
				c-2.187-12.608-8.937-22.321-19.395-29.329c-5.991-4.014-12.753-6.498-20.124-6.848c-0.506-0.024-0.994-0.414-1.49-0.633
				c14.053,0,28.104,0,42.158,0C148.151,19.966,148.151,34.195,148.151,48.423z"/>
			<path fill-rule="evenodd" clip-rule="evenodd" fill="#FFFFFF" d="M100.723,5.738c-2.267,0.557-4.508,1.278-6.807,1.641
				c-6.529,1.029-11.978,4.303-17.174,8.083c-7.089,5.155-11.627,12.241-14.778,20.266c-1.006,2.563-1.576,5.297-2.345,7.953
				c0-12.605,0-25.21,0-37.942C73.32,5.738,87.021,5.738,100.723,5.738z"/>
			<path fill-rule="evenodd" clip-rule="evenodd" fill="#FFFFFF" d="M131.421,50.199c1.024,15.122-13.243,28.671-28.938,27.973
				c-14.507-0.645-27.131-12.757-26.698-29.058c0.392-14.766,12.417-27.052,27.869-26.961
				C119.923,22.249,131.796,34.853,131.421,50.199z"/>
		</g>
		<g>
		</g>
	</g>
</g>
<g>
</g>
<g>
</g>
<g>
</g>
<g>
</g>
<g>
</g>
<g>
</g>
</svg>
